<svg width="100%" height="100%" viewBox="0 0 4400 1000" version="1.1" xmlns="http://www.w3.org/2000/svg" xml:space="preserve" style="fill-rule:evenodd;clip-rule:evenodd;stroke-linejoin:round;stroke-miterlimit:2;"><path id="logo" d="M1760.89,353.331c-80.785,80.784 -80.785,211.957 -0,292.742l292.742,292.742c80.784,80.784 211.958,80.784 292.742,-0l292.742,-292.742c80.785,-80.785 80.785,-211.958 0,-292.742l-292.742,-292.743c-80.784,-80.784 -211.958,-80.784 -292.742,0l-292.742,292.743Zm439.113,-205.164c-194.182,-0 -351.833,157.651 -351.833,351.833c-0,194.182 157.651,351.833 351.833,351.833c0,0 0,85.082 0,85.082c36.99,0 73.98,-14.098 102.177,-42.294l133.251,-133.252c9.089,-8.191 17.749,-16.85 25.941,-25.941l133.55,-133.549c56.393,-56.393 56.393,-147.961 0,-204.354l-141.883,-141.883c-2.84,-2.941 -5.732,-5.833 -8.678,-8.678l-142.181,-142.182c-28.197,-28.196 -65.187,-42.294 -102.177,-42.294l0,85.679Zm-0,41.666c171.186,0 310.167,138.981 310.167,310.167c-0,171.186 -138.981,310.167 -310.167,310.167c-171.186,-0 -310.167,-138.981 -310.167,-310.167c0,-171.186 138.981,-310.167 310.167,-310.167Zm-1723.4,17.413c0,-5.753 -4.663,-10.417 -10.416,-10.417l-81.348,0c-5.753,0 -10.417,4.664 -10.417,10.417l0,372.445c0,28.879 -4.727,53.824 -14.395,74.793c-9.301,20.173 -23.616,35.755 -42.944,46.747c-19.921,11.331 -45.618,16.782 -76.995,16.782c-45.284,-0 -79.545,-11.113 -102.434,-34.374c-22.939,-23.31 -33.894,-58.072 -33.894,-103.948l-0,-372.445c-0,-5.753 -4.664,-10.417 -10.417,-10.417l-82.145,0c-5.753,0 -10.417,4.664 -10.417,10.417l0,375.635c0,68.204 20.371,122.742 60.597,163.804c40.16,40.993 98.294,61.945 174.722,61.945c53.597,-0 98.037,-9.852 133.4,-29.191c35.93,-19.649 62.765,-46.498 80.589,-80.463c17.629,-33.591 26.514,-71.747 26.514,-114.5c0,-0 0,-377.23 0,-377.23Zm1047.96,515.552c-16.765,-0 -30.219,-4.887 -40.166,-15.169c-10.247,-10.593 -14.815,-26.771 -14.815,-48.186l0,-236.417c0,-0 116.789,-0 116.789,-0c5.753,-0 10.416,-4.664 10.416,-10.417l0,-61.808c0,-5.753 -4.663,-10.417 -10.416,-10.417l-116.789,0c0,0 0,-89.274 0,-89.274c0,-5.753 -4.664,-10.417 -10.417,-10.417l-49.446,0c-4.606,0 -8.665,3.025 -9.982,7.439l-26.969,90.402c0,0 -59.536,27.536 -59.536,27.536c-3.685,1.704 -6.044,5.394 -6.044,9.454l-0,37.085c-0,5.753 4.664,10.417 10.417,10.417l50.594,-0c-0,-0 -0,237.614 -0,237.614c-0,37.611 6.45,66.959 18.752,88.169c12.777,22.029 29.953,37.525 51.395,46.63c20.625,8.759 43.642,13.191 69.07,13.191c16.333,-0 32.319,-1.456 47.96,-4.363c15.985,-2.97 28.77,-6.635 38.39,-10.879c3.775,-1.666 6.212,-5.404 6.212,-9.531l-0,-61.409c-0,-3.417 -1.676,-6.616 -4.484,-8.562c-2.808,-1.946 -6.392,-2.391 -9.591,-1.192c-7.969,2.989 -17.44,5.393 -28.398,7.261c-11.107,1.893 -22.088,2.843 -32.942,2.843Zm1275.38,67.44c-0,5.753 4.664,10.416 10.417,10.416l334.96,0c5.753,0 10.417,-4.663 10.417,-10.416l0,-70.98c0,-5.753 -4.664,-10.417 -10.417,-10.417l-242.797,0c-0,0 -0,-501.595 -0,-501.595c-0,-5.753 -4.664,-10.417 -10.417,-10.417l-81.746,0c-5.753,0 -10.417,4.664 -10.417,10.417l-0,582.992Zm768.297,-398.97l-7.93,-42.383c-0.922,-4.929 -5.224,-8.501 -10.239,-8.501l-63.403,0c-5.753,0 -10.417,4.664 -10.417,10.417l0,439.437c0,5.753 4.664,10.416 10.417,10.416l80.151,0c5.753,0 10.417,-4.663 10.417,-10.416l0,-224.105c0,-48.446 8.235,-85.506 25.52,-110.991c16.503,-24.333 45.684,-35.705 86.882,-35.705c28.28,-0 49.461,7.276 63.13,22.948c14.056,16.116 20.562,40.318 20.562,72.307l-0,275.546c-0,5.753 4.664,10.416 10.416,10.416l79.354,0c5.753,0 10.417,-4.663 10.417,-10.416l-0,-286.312c-0,-59.954 -15.182,-103.273 -44.169,-130.422c-28.94,-27.105 -70.23,-41.095 -124.158,-41.095c-20.429,-0 -39.948,2.739 -58.558,8.197c-18.846,5.526 -35.916,13.826 -51.219,24.878c-10.249,7.403 -19.308,15.996 -27.173,25.784Zm-225.081,-40.467c-0,-5.753 -4.664,-10.417 -10.417,-10.417l-80.151,0c-5.753,0 -10.417,4.664 -10.417,10.417l0,439.437c0,5.753 4.664,10.416 10.417,10.416l80.151,0c5.753,0 10.417,-4.663 10.417,-10.416l-0,-439.437Zm758.637,185.433l0.795,-13.144c0.944,-15.784 1.414,-29.881 1.414,-42.292l0,-311.036c0,-5.753 -4.664,-10.416 -10.416,-10.416l-79.753,-0c-5.753,-0 -10.417,4.663 -10.417,10.416l0,620.476c0,5.753 4.664,10.416 10.417,10.416l79.753,0c5.752,0 10.416,-4.663 10.416,-10.416l0,-148.841c0,0 41.004,-36.378 41.004,-36.378c28.983,39.295 141.173,191.402 141.173,191.402c1.964,2.662 5.075,4.233 8.383,4.233l94.906,0c3.948,0 7.556,-2.232 9.32,-5.764c1.763,-3.532 1.378,-7.758 -0.995,-10.913l-183.361,-243.836c-0,0 170.285,-182.228 170.285,-182.228c2.833,-3.032 3.596,-7.455 1.944,-11.261c-1.653,-3.806 -5.406,-6.268 -9.555,-6.268l-92.513,0c-2.882,0 -5.635,1.194 -7.604,3.298l-140.365,149.935c-0.07,0.074 -0.139,0.15 -0.206,0.227c-8.086,9.163 -17.319,20.347 -27.696,33.553l-6.929,8.837Zm-3400.23,-144.966l-7.93,-42.383c-0.922,-4.929 -5.225,-8.501 -10.239,-8.501l-63.403,0c-5.753,0 -10.417,4.664 -10.417,10.417l-0,439.437c-0,5.753 4.664,10.416 10.417,10.416l80.151,0c5.753,0 10.417,-4.663 10.417,-10.416l-0,-224.105c-0,-48.446 8.235,-85.506 25.519,-110.991c16.503,-24.333 45.685,-35.705 86.883,-35.705c28.28,-0 49.461,7.276 63.129,22.948c14.056,16.116 20.562,40.318 20.562,72.307l0,275.546c0,5.753 4.664,10.416 10.417,10.416l79.354,0c5.753,0 10.417,-4.663 10.417,-10.416l-0,-286.312c-0,-59.954 -15.183,-103.273 -44.17,-130.422c-28.94,-27.105 -70.23,-41.095 -124.157,-41.095c-20.43,-0 -39.948,2.739 -58.559,8.197c-18.846,5.526 -35.915,13.826 -51.219,24.878c-10.249,7.403 -19.308,15.996 -27.172,25.784Zm531.263,-40.467c0,-5.753 -4.663,-10.417 -10.416,-10.417l-80.152,0c-5.753,0 -10.416,4.664 -10.416,10.417l-0,439.437c-0,5.753 4.663,10.416 10.416,10.416l80.152,0c5.753,0 10.416,-4.663 10.416,-10.416l0,-439.437Zm967.17,104.892l-40.892,-41.1c-0.019,-0.019 -0.037,-0.038 -0.056,-0.056c-47.2,-47.201 -123.727,-47.201 -170.927,-0c-47.168,47.168 -47.168,123.758 0,170.926c47.2,47.201 123.727,47.201 170.927,0c0.019,-0.018 0.037,-0.037 0.056,-0.056l40.892,-41.1l40.892,41.1c0.019,0.019 0.037,0.038 0.056,0.056c47.2,47.201 123.727,47.201 170.927,0c47.168,-47.168 47.168,-123.758 -0,-170.926c-47.2,-47.201 -123.727,-47.201 -170.927,-0c-0.019,0.018 -0.037,0.037 -0.056,0.056l-40.892,41.1Zm44.082,44.307l41.077,41.287c22.794,22.775 59.735,22.769 82.522,-0.018c22.777,-22.777 22.777,-59.761 -0,-82.538c-22.787,-22.787 -59.728,-22.793 -82.522,-0.018l-41.077,41.287Zm-88.164,0l-41.077,-41.287c-22.794,-22.775 -59.735,-22.769 -82.522,0.018c-22.777,22.777 -22.777,59.761 0,82.538c22.787,22.787 59.728,22.793 82.522,0.018l41.077,-41.287Zm1137.35,-325.9c-15.691,-0 -28.851,4.624 -39.579,13.589c-10.931,9.137 -17.094,23.722 -17.094,44.28c-0,20.506 6.122,35.145 17.025,44.421c10.746,9.142 23.93,13.848 39.648,13.848c15.345,-0 28.503,-4.64 39.532,-13.751c11.254,-9.297 17.54,-23.967 17.54,-44.518c-0,-20.603 -6.327,-35.218 -17.61,-44.375c-11.01,-8.936 -24.144,-13.494 -39.462,-13.494Zm-2110.33,-0c-15.69,-0 -28.851,4.624 -39.578,13.589c-10.932,9.137 -17.095,23.722 -17.095,44.28c0,20.506 6.122,35.145 17.026,44.421c10.745,9.142 23.93,13.848 39.647,13.848c15.345,-0 28.503,-4.64 39.532,-13.751c11.254,-9.297 17.54,-23.967 17.54,-44.518c0,-20.603 -6.327,-35.218 -17.609,-44.375c-11.011,-8.936 -24.144,-13.494 -39.463,-13.494Z" style="fill:#252525;"/></svg>